<?xml version="1.0" encoding="UTF-8"?>
<!DOCTYPE svg PUBLIC "-//W3C//DTD SVG 1.1//EN" "http://www.w3.org/Graphics/SVG/1.1/DTD/svg11.dtd">
<!-- Creator: CorelDRAW 2020 (64 Bit) -->
<svg xmlns="http://www.w3.org/2000/svg" xml:space="preserve" width="243.264mm" height="243.518mm" version="1.1" style="shape-rendering:geometricPrecision; text-rendering:geometricPrecision; image-rendering:optimizeQuality; fill-rule:evenodd; clip-rule:evenodd"
viewBox="0 0 36426.01 36464.05"
 xmlns:xlink="http://www.w3.org/1999/xlink"
 xmlns:xodm="http://www.corel.com/coreldraw/odm/2003">
 <defs>
  <style type="text/css">
   <![CDATA[
    .fil0 {fill:#ED3237}
    .fil1 {fill:#7F2E2F;fill-rule:nonzero}
   ]]>
  </style>
 </defs>
 <g id="Camada_x0020_1">
  <metadata id="CorelCorpID_0Corel-Layer"/>
  <path class="fil0" d="M14298.61 11218.09c136.83,-626.45 318.33,-1576.97 511.72,-2601.89l-717.97 1729.26c-52.12,125.51 -144.15,213.98 -271.67,261.1 -127.47,47.09 -254.93,39.73 -376.11,-21.76 -124.96,-63.37 -252.28,-123.46 -381.64,-179.34l-38.89 193.45c482.01,153.48 915.11,354.91 1274.56,619.19zm659.33 -3385.34c355.63,-1887.19 722.58,-3810.39 907.04,-4300.5 202.19,695.91 511.84,2911.49 613.87,3697.89 11.19,86.1 22.57,172.17 34.14,258.21 684.25,-647.56 1497.27,-1119.52 2377.25,-1423.78 -1055.63,-1850.1 -2203.33,-3794.37 -2687.83,-4717.21 -293.53,-558.99 -383.5,-981.36 -868.6,-1347.36 -29.09,39.86 -74.3,53.55 -77.83,125.96 -3.47,71.25 -58.47,93.95 -72.55,126.38 -277.21,638.32 -142.07,529.22 -257.85,1150.16 -83.84,449.97 -229.73,921.51 -347.56,1465.34l-867.11 4313.87c371.35,118.67 728.02,268.72 1057.02,453.5 84.54,47.48 149.11,116.95 190,197.54zm12767.83 6952.63c773.55,119.61 1660.51,285.3 2388.92,451.79l2098.96 473.41c275.85,62.26 152.49,33.33 376.64,96.61l239.66 85.28c-2204.56,526.8 -4538.4,601.46 -6727.83,1094.68l0 918.03 1810.18 0c259.32,0 470.82,211.51 470.82,470.81l0 1609.3c2165.57,-1244.24 5141.93,-2845.89 6788.14,-3754.39 524.71,-289.59 906.1,-462.29 1254.75,-922.08l-262.03 -127.29c-387.06,-148.26 14.39,-19.35 -385.34,-132.95l-4985.58 -995.28c-801.64,-170.06 -1724.21,-317.94 -2642.59,-478.01 -99.44,417.14 -240.82,822.26 -424.7,1210.08zm-5871.03 12040.6c-25.68,163.74 -53.67,338.63 -84.71,526.96 -143.57,871.58 -946.2,5167.62 -1179.28,5573.55 -38.03,-869.94 -442.31,-2690.27 -580.43,-3745.46 -91.58,-699.27 -324.36,-1171.6 -416.2,-1921.9 -63.06,-515.09 -108.91,-875.22 -158.95,-1125.84l-532.92 0 -466.27 1210.41c-71.41,185.33 -240.74,301.56 -439.33,301.56l-1992.25 0c308.9,513.75 609,1014.87 681.97,1137.61 210.44,354.18 381.86,863.51 634.92,1288.91 793.86,1334.37 681.55,925.16 1461.84,2558.27 246.53,515.93 445.37,657.22 762.01,1279.62 262.6,516.15 577.23,953.34 734.51,1307.25 270.95,609.87 156.84,940.21 863.8,1247.13 378.85,-679.77 1047.86,-4563.49 1255.53,-5691.83 94.58,-513.65 204.24,-1175.97 326.22,-1879.06l-870.46 -2067.19zm-13708.05 -5250.7c-1551.55,-296.24 -4160.28,-743.03 -4570.55,-1034.71l3841.88 -683.36 -1038.6 -2448.89 -3934.63 2182.37c-715.63,425.84 -2226.32,958.4 -2444.77,1687.27 700.16,243.91 2029.17,396.33 2816.87,515.57 670.13,101.39 755.36,255.92 1308,358 929.08,171.66 2936.66,513.38 4623.96,843.57l-602.16 -1419.81zm2339.04 -7935c-12.02,-16.64 -23.93,-33.44 -35.55,-50.39l-128.42 -205.55c-387.06,-81.73 -771.68,-165.94 -1152.66,-285.36 -264.41,-82.88 -514.17,-179.63 -745.56,-292.51 73.06,108.1 146.07,215.85 218.57,322.75 564.83,268.59 1221.73,452.89 1843.61,511.06zm12698.62 19801.91c394.7,-47.18 843.18,-176.78 1306.53,-355.82l-549.3 -1304.46c-630.18,319.27 -836.85,676.88 -757.23,1660.29zm4556.01 -2189.96c32.88,-25.43 64.6,-50.34 94.96,-74.66 643.11,-515.28 1380.28,-1097.66 1798.14,-1557.67 194.39,-214.01 625.61,-695.43 768.4,-871.08 722.12,-888.31 1526.68,-1942.49 2026.55,-2976 272.18,-562.75 400.12,-494.81 597.85,-989.47l1051.96 -3688.1c94.5,-781.82 257.46,-1969.22 179.85,-2748.47 -343.14,24.26 -984.61,151.22 -1221.18,461.87 -261.58,343.43 -136.4,2647.49 -1148.02,4886.77 -640.4,1417.55 -728.84,1845.08 -1639.51,3225.49l-3095.37 2980.84 586.36 1350.48zm4301.97 -18111.99l1426.14 287.06c-970.17,-3034.14 -758.31,-2283.68 -2384.55,-4834.3 -486.44,-762.95 -2709.03,-2985.27 -3366.32,-3461.74l-2011.05 -1177.92c-182.41,-77.67 -359.36,-155.95 -532.59,-233.95l-1222.48 992.87c190.17,85.37 362.7,161.57 495.73,216.25 1915.61,787.01 3875.15,2429.84 5192.19,4028.45 1167.23,1416.63 1579.77,2436.65 2402.93,4183.27zm-10006.94 -10555.6c-1280.21,-258.79 -2902.72,-435.67 -3956.85,-360.75 517.48,1530.27 1354.13,1415.44 2703.91,1533.19l826.02 -1001.24c92.55,-112.17 217.77,-171.2 363.19,-171.2l63.73 0zm-3647.7 31748.82c-108.41,-348.2 -526.05,-1182.95 -874.53,-1333.42 -1664.74,-51.57 -3246.22,-525.85 -4673.36,-1068.73 -1273.26,-484.35 -1463.4,-422.73 -2923.86,-1468.1 -5320.39,-3808.52 -4840.88,-7894.73 -7072.72,-7305.11 459.19,1532.02 1478.85,3556.49 2374.3,4711.19 1789.23,2307.24 4838.26,4726.97 7695.77,5572.9 1744.22,516.34 3318.75,1008.34 5474.41,891.28zm-16337.19 -16026.74c2235.86,-349.95 1084.33,-1639.46 2371.02,-5418.21 380.31,-1116.92 1583.04,-3129.75 2246.17,-3779.03 264.5,-258.94 459.34,-458.84 607.06,-617.75 121.09,-177.98 260.44,-341.66 415.26,-490.83 267.1,-361.89 184.37,-364.55 2208.9,-1967.57 1721.01,-1362.67 3763.12,-1061.27 3345.87,-2997.43 -2535.27,283.01 -6514.24,3353.42 -8022.98,5734.71 -612.96,967.42 -1702.32,1905.46 -2293.8,4208.6 -364.36,1418.55 -958.28,3872.14 -877.5,5327.5zm4728.65 -8491.79c-46.27,-2.65 -92.13,-4.7 -137.24,-5.68 14.36,79.27 54.03,186.71 113.95,316.43 2.8,-104.1 10.51,-207.78 23.28,-310.75zm1356.17 6619.49l-279.79 155.17 862.48 0c-197.04,-45.01 -392.08,-96.64 -582.69,-155.17zm2312.81 10567.34c-325.22,1016.46 -615.34,2003.49 -628.47,2809.12 749.79,-157.23 2219.83,-1230.78 3517.56,-2165.61l-2304.42 0c-193.09,0 -358.06,-109.22 -433.45,-287l-151.22 -356.5zm17935.01 -561.82c526.08,122.4 1022.48,197.04 1459.67,185.41 -158.51,-634.2 -817,-1490.84 -1459.67,-2359.18l0 2173.77zm-1890.63 -18872.3c69.19,-369.71 104.77,-704.81 89.24,-986.69 -203.6,78.22 -467.77,220.79 -772.71,406.39 239.85,175.67 468.35,369.02 683.47,580.3z"/>
  <path class="fil1" d="M25757.35 27174.44l2154.92 0 0 -8798.44 -2154.92 0 0 8798.44zm-14888.31 -10812.94c2689.29,0 4040.15,-1338.47 4040.15,-2924.76 0,-3199.51 -4796.12,-2331.97 -4796.12,-3370.95 0,-297.41 272.67,-545.32 1127.77,-545.32 755.97,0 1561.52,210.71 2416.66,644.43l879.88 -2119.18c-904.66,-508.11 -2106.81,-756 -3271.78,-756 -2689.26,0 -4040.15,1313.69 -4040.15,2924.79 0,3234.6 4796.18,2352.64 4796.18,3445.3 0,297.41 -297.47,470.93 -1127.77,470.93 -954.32,0 -2044.89,-309.82 -2862.83,-793.17l-941.89 2131.65c867.54,532.89 2329.91,892.28 3779.89,892.28zm3832.09 2137.73l-2119.22 5068.79 -2690.79 -6507.6 -3147.87 0 4289.52 10114.02 2875.2 0 3668.38 -8675.21 -2875.21 0zm6760.51 -532.22c3691.47,0 6395.35,-2493.41 6395.35,-5925.82 0,-3432.46 -2703.88,-5925.87 -6395.35,-5925.87 -3691.51,0 -6395.36,2493.41 -6395.36,5925.87 0,3432.42 2703.85,5925.82 6395.36,5925.82zm-1499.47 -12475.83l2283.46 0 2998.97 -2435.73 -3272.96 0 -2009.47 2435.73zm5108.5 27759.03l3023.92 0 -6404.84 -14750.98 -2875.2 0 -3792.3 8675.21 2974.35 0 582.47 -1511.96 3296.59 0 3195.01 7587.73z"/>
 </g>
</svg>
