<?xml version="1.0" encoding="UTF-8"?>
<!DOCTYPE svg PUBLIC "-//W3C//DTD SVG 1.1//EN" "http://www.w3.org/Graphics/SVG/1.1/DTD/svg11.dtd">
<!-- Creator: CorelDRAW 2020 (64 Bit) -->
<svg xmlns="http://www.w3.org/2000/svg" xml:space="preserve" width="234.727mm" height="208.476mm" version="1.1" style="shape-rendering:geometricPrecision; text-rendering:geometricPrecision; image-rendering:optimizeQuality; fill-rule:evenodd; clip-rule:evenodd"
viewBox="0 0 30287.83 26900.6"
 xmlns:xlink="http://www.w3.org/1999/xlink"
 xmlns:xodm="http://www.corel.com/coreldraw/odm/2003">
 <defs>
  <style type="text/css">
   <![CDATA[
    .fil0 {fill:#111359}
   ]]>
  </style>
 </defs>
 <g id="Camada_x0020_1">
  <metadata id="CorelCorpID_0Corel-Layer"/>
  <path class="fil0" d="M8408.48 8201.97c1620.43,0 2890.12,-885.03 3317.24,-2208.82 207.98,140.47 455.79,330.59 622.8,446.46 664.1,460.7 781.78,866.99 1075.81,190.93l-1685.66 -678.85c92.76,-301.9 142.26,-625.92 142.26,-967.15 0,-1863.81 -1468.16,-3217.59 -3472.44,-3217.59 -2004.28,0 -3472.45,1353.78 -3472.45,3217.59 0,1863.65 1468.18,3217.43 3472.45,3217.43zm10511.41 18149.25l6434.85 0 0 -509.22 -278.13 0 0 -124.88 278.13 0 0 -509.23 -6434.85 0 0 509.23 532.33 0 0 124.88 -532.33 0 0 509.22zm5531.79 -634.1l0 124.88 -624.94 0 0 -124.88 624.94 0zm-1249.86 0l0 124.88 -624.94 0 0 -124.88 624.94 0zm-1249.86 0l0 124.88 -624.94 0 0 -124.88 624.94 0zm-1249.86 0l0 124.88 -624.94 0 0 -124.88 624.94 0zm3301.66 -801.29l1350.99 0 0 -5033.87 -1350.99 0 0 5033.87zm-1233.63 -2636.42c429.4,-221.75 672.78,-608.22 672.78,-1087.77 0,-772.93 -644.1,-1309.68 -1961,-1309.68l-2562.01 0 0 5009.78 2705.25 0c1345.41,0 2060.97,-508.24 2060.97,-1374.1 0,-608.38 -350.73,-1037.78 -916,-1238.23zm-4189.5 4071.81l-16.54 -7302.51 -1111.54 0 -2152.28 3630.93 -2185.38 -3630.93 -1118.59 0 0 5420.51 1268.72 0 0 -3008.14 1709.76 2812.93 609.36 0 1718.1 -2888.16 8.36 4965.37 1270.02 0zm-9428.56 -1804.65c1553.07,0 2698.04,-1087.77 2698.04,-2576.43 0,-1488.5 -1144.97,-2576.27 -2698.04,-2576.27 -1552.9,0 -2698.04,1094.82 -2698.04,2576.27 0,1481.44 1145.14,2576.43 2698.04,2576.43zm-1586.82 2354.02l1508.81 0 -4100.98 -4965.2 3855.96 -4062.31 -1470.14 0 -4900.63 5042.57 0 -5042.57 -1289.68 0 0 9027.51 1289.68 0 0 -2334.19 1650.76 -1676.65 3456.22 4010.84zm-5544.58 -9579.83l956.98 0c766.86,0 1285.1,-504.47 1285.1,-1209.22 0,-704.76 -518.24,-1209.06 -1285.1,-1209.06l-956.98 0 0 2418.28zm176.18 -158.98l0 -2100.32 766.86 0c684.1,0 1122.86,435.14 1122.86,1050.08 0,614.93 -438.76,1050.24 -1122.86,1050.24l-766.86 0zm2853.58 0l0 -991.4 3774.02 0 0 -155.54 -3774.02 0 0 -953.38 3926.11 0 0 -158.98 -4102.3 0 0 2418.28 4154.09 0 0 -158.98 -3977.91 0zm6097.89 -3596.02l1244.46 0 0 -5080.92 -1244.46 0 0 5080.92zm-434.97 3870.87l1746.3 0 -3698.79 -8518.29 -1660.26 0 -2189.96 5009.61 1717.61 0 336.31 -873.07 1903.81 0 1844.97 4381.75zm-5988.08 -8518.29l-1223.8 2927 -1553.9 -3757.96 -1817.93 0 2477.11 5840.57 1660.43 0 2118.34 -5009.61 -1660.26 0zm2760.16 -7511.81l1318.7 0 1731.72 -1406.55 -1890.04 0 -1160.38 1406.55zm-5302.66 6277.35c1553.07,0 2333.04,-772.93 2333.04,-1689.11 0,-1847.59 -2769.5,-1346.56 -2769.5,-1946.59 0,-171.76 157.34,-314.83 651.16,-314.83 436.61,0 901.76,121.6 1395.57,372.03l508.07 -1223.63c-522.33,-293.37 -1216.59,-436.63 -1889.22,-436.63 -1553.07,0 -2333.21,758.67 -2333.21,1688.94 0,1867.91 2769.66,1358.52 2769.66,1989.53 0,171.76 -171.76,272.07 -651.15,272.07 -551.18,0 -1180.87,-178.98 -1653.21,-458.1l-543.97 1231.03c501.03,307.63 1345.41,515.29 2182.76,515.29zm22990.72 9756.18l382.53 88.35 -474.81 1247.89 -289.44 -53.42 381.71 -1282.82zm309.6 748.19c86.04,-208.65 155.52,-410.39 255.51,-619.69l281.08 132.58c-46.05,164.22 -234.04,481.04 -321.23,654.11 -85.07,169.14 -209.14,530.03 -421.88,468.73l206.52 -635.74zm-12291.65 -1836.45l158.65 905.69c-224.53,163.24 -453.49,-753.1 -465.47,-827.19l306.82 -78.5zm6018.73 -10301.13c7.05,-38.85 18.18,-77.52 6.22,-100.31 -9.5,-18.19 -8.52,-23.92 -11.79,-44.41l-22.3 -85.23c-6.39,-19.17 -0.81,-31.63 -6.55,-48.03 -4.43,-12.62 -3.94,-3.92 -7.86,-21.14 -15.41,-69.33 -19.83,-36.05 -25.9,-83.1 -3.12,-23.77 -3.45,-0.49 -19.02,-38.35l-29.01 -58.01 -56.54 -64.75c-11.79,-14.41 -13.28,-9.34 -26.06,-18.84 -10.65,-7.87 -10.98,-14.59 -24.25,-23.6l-55.56 -39.99c-43.11,-29.02 -49.99,-21.64 -79.82,-71.79 -12.79,-21.79 -32.12,-36.22 -45.88,-57.52 -2.79,-4.43 -5.25,-9.68 -5.91,-10.81 -18.52,-31.3 -102.6,-33.28 -120.79,-30.98 -14.26,1.81 -19.17,8.68 -48.18,6.55 -139.64,-10.15 -85.39,-28.84 -160.29,-40.97 -28.68,-4.76 -75.39,20.81 -160.3,-7.06 -57.19,-18.84 -53.91,-6.22 -92.43,-41.29 2.62,-19.68 4.75,-37.21 14.9,-51.63 8.36,-12.13 17.55,-16.23 24.26,-33.45 7.06,-18.18 6.72,-33.76 16.23,-47.85 9.17,-13.45 18.85,-14.59 26.54,-35.57 6.23,-17.2 9.19,-29.99 13.61,-49.99 6.88,-31.14 10.49,-26.22 21.47,-46.22 8.19,-14.75 9.83,-32.77 16.56,-46.21 9.83,-20 14.26,-4.43 25.07,-43.11 0.98,-0.98 7.87,-9.51 10.32,-12.3 11.47,-13.6 8.36,1.64 10.66,-17.86 15.41,-11.64 9.83,-14.59 35.24,-38.68 27.69,-26.22 8.52,-28.18 37.37,-58.99 31.95,-34.26 10.98,-45.24 42.44,-93.27 25.57,-39.16 27.7,-168.31 69.5,-248.79 12.28,-15.07 24.09,-97.36 26.88,-116.85 4.09,-29.5 -2.79,-78.67 -9.51,-99.65 -6.06,-19.01 -10.15,-19.17 -11.64,-44.25l-23.11 -88.67c-3.43,-16.05 -3.6,-31.63 -7.2,-47.52 -12.63,-53.76 -13.28,-31.3 -5.57,-99 3.6,-30.81 15.73,-83.1 4.09,-109.64 -11.64,-26.23 -3.6,4.58 -8.85,-18.85 -5.73,-25.24 1.97,-34.75 -16.39,-68.35 -30.65,-55.88 -8.52,-57.36 -20.98,-93.91l-80.96 -205.53c-20.66,-39.01 -51.14,-51.63 -62.45,-60.8 -60.31,-49.5 -195.68,-53.1 -271.9,-65.39 -117.02,-19.01 -113.74,-17.86 -221.58,-9.02l-48.35 6.72c-59.18,3.28 -10.34,-11.79 -101.29,5.9 -17.54,3.45 -28.68,3.29 -46.71,7.7 -14.43,3.61 -34.26,9.85 -44.58,11.64 -43.27,7.55 -16.88,-2.45 -41.46,15.08 -18.04,12.94 -18.53,-3.94 -44.09,12.45 -14.59,9.17 -22.62,12.45 -37.54,20.81 -29.66,16.89 -65.23,36.71 -86.53,64.25 -6.72,8.7 -4.43,9.68 -13.11,18.68 -27.7,29.17 -14.43,21.47 -27.21,35.41 -20.32,21.79 -10.32,7.21 -27.2,37.86 -10,18.19 -17.87,20.98 -26.23,35.9l-53.92 155.37c-4.75,17.37 -13.26,26.56 -22.94,37.69 -0.81,0.98 -5.41,6.55 -6.22,7.7 -4.43,6.06 -3.61,5.74 -7.38,11.64 -13.45,21.3 -27.2,31.63 -42.45,49.5 -46.87,55.07 -15.07,36.39 -51.78,75.55 -13.12,13.94 -12.46,28.52 -23.28,42.28 -11.96,15.25 -18.68,16.72 -30.32,36.72 -10.32,17.69 -14.58,20.32 -26.56,35.07 -13.43,16.71 -9.99,32.12 -19.99,46.87 -9.17,13.45 -17.54,8.53 -26.72,35.57l-58.5 140.45c-12.79,33.43 -39.33,54.9 -40.16,98.66 -15.9,2.95 -19.83,8.85 -25.56,25.08 -15.74,45.07 -85.39,134.56 -118.01,173.73 -37.37,35.23 -24.58,28.67 -42.28,46.05l-13.11 13.11c-28.52,33.92 -47.86,54.58 -84.4,82.61l-40.48 43.92c-4.59,6.88 -4.43,9.17 -10.98,15.9 -18.36,19.01 -81.79,68.99 -72.28,102.76 1.47,5.24 67.36,61.46 42.77,95.21l-134.39 74.25c-58.03,35.73 -138.82,41.79 -153.58,47.86 -39.82,16.22 -19.99,-1.81 -68.01,36.22 -4.75,3.77 -6.88,4.43 -12.94,8.36 -29.51,19.17 -44.92,47.37 -58.52,81.46 -7.05,0.65 1.48,-9.02 -11.3,5.41 -8.68,9.66 -3.61,7.54 -9.51,18.84 -9.01,17.7 -12.94,10.34 -23.28,31.15 -6.22,12.62 -8.19,26.39 -18.68,37.03 -11.96,12.13 -14.9,5.91 -25.56,27.38 -15.9,31.46 -46.54,69.32 -71.95,94.4l-9.17 8.35c-5.57,5.57 -6.23,5.74 -9.68,13.28 -23.26,0.49 -2.94,-2.13 -18.68,4.27 -1.3,0.49 -12.94,6.88 -13.6,7.2 -10,5.57 -18.19,9.85 -30.81,13.61 -52.12,15.41 -76.21,41.14 -112.26,70.47 -30.81,24.92 -50.81,68.35 -62.62,83.27 -11.47,14.75 -12.94,7.05 -23.76,24.75 -27.37,45.07 -31.79,35.56 -41.63,57.03l-34.92 67.69c-8.52,29.01 -15.73,56.54 -16.88,87.51 73.42,62.12 47.03,176.69 152.09,86.87l45.73 -40.48c5.07,-8.19 6.22,-12.3 12.94,-19.34 12.96,-14.09 4.26,3.12 14.43,-15.9 11.79,-22.13 2.79,-21.47 19.66,-42.12 22.62,-27.54 6.72,-34.75 33.92,-53.27l88.5 -54.75c20.81,-9.66 38.52,-1.79 78.18,-27.69 63.59,-41.47 31.47,34.09 29.01,43.27 -11.96,44.9 -9.66,54.25 -37.86,93.42 -13.43,18.68 -10.49,26.39 -17.7,50.65 -5.24,18.03 -14.09,27.37 -22.45,42.28 -10.32,18.52 -9.83,30.16 -16.56,52.12 -8.03,25.41 -20.32,18.19 -39.67,94.74 -40.65,160.78 -33.92,79.65 -57.69,143.41l-28.35 43.1c89.49,-9.51 178.97,-18.35 267.81,-26.71 6.22,-13.94 12.77,-28.52 18.84,-50.65 8.53,-29.83 25.9,-115.55 36.56,-135.71 11.79,-22.45 19.99,-4.43 29.5,-45.9 4.43,-19.33 0.98,-18.03 13.94,-28.84 4.43,-3.6 16.05,-10.81 22.62,-12.13 -1.15,75.23 -44.75,52.94 -50.16,186.67 0.98,19.51 -7.38,54.75 -15.08,81.29 109,-9.83 217.49,-19.17 324.84,-27.86 647.71,-52.12 1302.15,-82.44 1951.82,-85.06l6.06 0 6.06 0.17c250.11,7.54 500.37,19.66 750.81,35.73zm5868.92 1105.46c-0.66,-7.21 -2.62,-11.47 -6.23,-24.26 -8.19,-28.35 -9.66,-55.06 -19.33,-83.58 -2.63,-7.7 -2.63,-10.34 -5.08,-19.02 -3.94,-13.43 -3.28,-9.66 -9.51,-20.32 -20.65,-35.56 -31.63,-79.49 -56.22,-110.62l-58.99 -78.35c-51.47,-75.72 -60.65,-61.95 -85.39,-89.81 -10.32,-11.47 -1.15,-6.89 -12.62,-17.38l-65.72 -50.65c-18.03,-20.81 -49.83,-25.56 -72.12,-43.59 -0.66,-0.49 -1.47,-1.47 -2.3,-2.13l-44.25 -22.45c-13.45,-6.72 -18.68,-17.54 -31.64,-24.92 -13.6,-7.87 -29.99,-10.49 -44.57,-17.7 -14.43,-7.37 -21.47,-18.03 -38.19,-25.41l-83.91 -39.01c-16.39,-8.68 -33.77,-9.99 -45.41,-22.61l-24.9 -24.43c-25.9,-19.01 -47.37,-48.03 -74.25,-66.54 -17.54,-11.96 -39.83,-29.17 -60.16,-36.88 -60.97,-22.94 -155.69,-25.56 -190.76,-63.59 -23.11,-25.24 3.6,-39.99 -20.66,-82.76 -19.66,-35.08 -48.67,-21.47 -90.47,-30.16 -14.59,-34.92 3.77,-43.6 -24.75,-76.05 -8.85,-10.17 -17.21,-15.57 -24.75,-27.05 -56.05,-86.21 -62.93,-41.14 -100.63,-71.95 -19.99,-16.39 -41.95,-31.96 -56.38,-53.76 -24.26,-36.54 0.15,-136.85 8.52,-191.76 11.81,-79.16 9.83,-71.12 66.54,-105.06 21.64,-12.94 45.07,-28.52 68.67,-34.09 24.09,-5.73 24.09,0.34 36.88,-20.32 16.72,-27.2 28.03,-41.95 58.67,-47.69 22.45,-4.26 51.79,-18.35 68.84,-35.24 27.86,-27.37 25.07,-42.28 28.84,-83.42 1.97,-23.11 3.28,-80.8 10.83,-95.38l39.67 -75.56c43.1,-43.92 33.92,-134.22 48.01,-193.89 6.72,-28.68 21.96,-77.19 23.11,-101.45 6.89,-138.17 49.17,-127.34 23.77,-190.78 -79.82,-199.63 -28.68,-166.69 -39.01,-253.87 -2.46,-20.16 -16.88,-58.18 -26.22,-75.39 -14.43,-27.2 -21.97,-44.25 -40,-69.16 -16.39,-22.45 -33.6,-26.88 -52.28,-56.54l-87.19 -125.87c-15.07,-28.67 -27.37,-42.94 -45.39,-65.72l-68.84 -90.14 -59.5 -51.95 -82.76 -37.86c-58.18,-16.23 -76.05,-18.85 -118.17,-60.65 -13.43,-13.45 -4.58,-16.56 -29.33,-24.75 -46.71,-15.41 -101.78,-8.19 -147.02,-4.43 -15.07,1.15 -28.68,-0.66 -43.59,1.32l-78.67 21.96c-62.61,31.14 -101.29,16.56 -124.72,25.24 -45.24,17.05 -60.31,51.63 -128,88.83 -10.49,5.74 -6.55,4.43 -15.08,10.49l-76.7 56.22c-13.94,8.84 -16.89,16.39 -28.68,28.18l-130.3 149.96c-41.95,41.64 -38.67,66.54 -48.67,131.94 -5.25,35.24 -10.49,72.28 -18.03,107.02 -18.19,83.43 -33.94,64.9 -53.43,197.16 -6.4,43.77 7.21,55.56 2.62,92.29 -4.43,35.23 -27.2,122.75 -21.47,155.03 4.26,25.24 11.96,-0.98 7.54,44.58 -3.6,38.03 2.95,52.12 -5.41,96.21 -5.9,31.14 -12.45,61.29 0,92.59 8.04,19.83 8.53,12.96 8.19,39.67 -0.15,33.6 10.17,12.96 9.34,41.79 -0.32,12.62 -16.05,99.65 -20.32,110.47 -16.56,42.94 -18.03,9.34 -31.14,87.52 -8.19,48.35 11.3,42.77 3.45,92.76 -6.4,40.65 -30.32,111.94 -12.96,149.31 0.66,1.48 1.81,2.79 3.94,8.68 1.64,4.76 0.98,3.78 2.62,9.85 2.13,7.7 3.12,12.45 8.7,18.52 2.45,2.62 11.14,8.52 14.58,11.3l99.16 141.11c63.1,80.31 69.98,30.81 102.92,73.27 -5.08,10.98 -15.41,15.73 -23.43,23.11 -2.95,2.79 -23.77,26.06 -24.92,28.03 -15.56,23.28 -15.9,61.29 -24.9,89.49 -7.21,22.13 -9.02,10.32 -21.32,27.05 -14.41,19.83 -4.43,13.28 -22.77,30.32 -8.68,8.19 -14.43,17.86 -24.43,23.6 -39.82,22.77 -83.74,13.77 -118.98,17.54 -57.03,6.06 -126.2,-4.76 -181.44,-13.45 -38.68,-6.22 -91.78,-9.01 -132.26,-6.72 -20.17,1.15 -21.47,4.43 -42.62,3.94 -28.67,-0.81 -60.48,-6.39 -85.23,0.99 -33.27,10.15 -62.27,5.73 -93.74,15.39 -1.15,0.34 -8.19,2.79 -9.34,3.29l-81.61 19.17c-22.3,2.62 -21.15,4.43 -37.37,13.43 -17.7,10.17 -26.39,19.66 -45.56,24.09 -53.43,12.46 -97.52,54.41 -139.47,86.38 -6.06,4.59 -15.25,10.17 -24.75,16.06 191.25,28.84 381.86,60.14 571.17,94.57l2.95 0.66 3.11 0.49c673.93,135.05 1337.71,275.67 1994.93,480.7 266.65,83.25 533.14,167.65 798.66,254.52zm-6630.37 -787.02c-1208.57,4.75 -2968.47,123.74 -4073.29,386.79 348.28,25.41 2229.47,-44.75 2947.98,-27.05 2818.83,69.33 5157.94,367.45 7890.9,1044.17 452.85,112.27 1045.65,323.21 1484.89,392.7 -286.65,-225.69 -2026.73,-770.64 -2524.31,-925.85 -675.74,-210.93 -1305.1,-340.41 -1959.04,-471.53l0 0 0 0c-1.81,-0.32 -1860.7,-341.72 -3767.13,-399.24zm1612.55 2799.17c1353.78,-76.71 1378.69,1983.3 114.08,2043.44 -1363.29,64.9 -1427.36,-1969.04 -114.08,-2043.44zm1251.5 1447.03c544.14,-1605.52 -1843,-2368.45 -2364.67,-840.3 -251.91,737.53 193.89,1410.65 788.17,1605.84 699.34,229.63 1383.76,-196.83 1576.5,-765.55zm-1345.57 -2824.57c3164.81,-179.29 3222.99,4636.11 266.82,4776.89 -3186.94,151.77 -3336.58,-4602.99 -266.82,-4776.89zm2925.85 3382.63c1271.83,-3753.19 -4308.63,-5536.71 -5528.19,-1964.44 -588.54,1724.01 453.5,3297.57 1842.84,3753.85 1634.7,536.92 3234.8,-459.89 3685.35,-1789.41zm-2846.37 -2217c1632.55,-92.44 1662.55,2391.39 137.67,2464 -1643.86,78.34 -1721.06,-2374.36 -137.67,-2464zm1509.31 1744.83c656.07,-1935.94 -2222.59,-2855.88 -2851.62,-1013.2 -303.53,889.29 234.04,1700.9 950.6,1936.25 843.24,276.98 1668.62,-237.32 1901.02,-923.05zm5564.4 -1988.87c364.34,-360.57 760.97,-345.98 1275.27,-535.45 -619.2,-124.88 -943.05,7.21 -1380,183.07l104.72 352.38zm-803.08 -818.99c108.01,-615.26 130.13,-1346.23 102.6,-1942.15 -19.17,-414.82 -130.13,-1421.79 -285.67,-1714.03l183.07 3656.17zm-12114.79 -1452.76c94.56,-88.83 157.01,-239.78 220.11,-360.57 67.36,-128.66 123.41,-244.86 187.16,-375.64 554.14,-1137.44 517.09,-1573.07 735.73,-2724.92 -99.65,145.05 -1049.09,3089.92 -1143,3461.14zm16055.82 1892.66l29.5 -198.65c-108.66,-340.41 -15.08,-307.63 -251.41,-593.79 -363.53,-440.55 -1338.05,-705.4 -1524.06,423.35 191.59,-285.67 297.8,-555.12 669.34,-527.58 361.89,26.71 621.66,213.38 697.55,562.81 71.78,331.4 -270.11,693.78 -442.85,774.24 -539.05,250.92 -520.69,-4.43 -959.28,-41.63 153.41,92.27 204.21,219.62 441.04,287.14 165.86,47.37 481.53,72.61 625.75,26.23 479.72,-154.23 570.02,-499.07 714.42,-712.13zm-16649.46 -2649.69c-149.47,-245.68 -45.07,-927 68.67,-1237.9 107.19,-293.05 420.88,-811.44 612.32,-965.67 -41.79,565.6 -401.88,1799.73 -680.99,2203.57zm-94.4 396.95c141.94,-73.91 337.95,-388.43 428.1,-523.31 471.36,-704.26 608.37,-1459.98 666.55,-2314.69 -454.64,-110.3 -438.91,15.73 -706.71,256.98 -716.39,645.26 -674.1,1853.16 -387.94,2581.02zm11956.15 5728.95c1353.78,-76.7 1378.69,1983.3 114.08,2043.45 -1363.45,65.06 -1427.36,-1969.04 -114.08,-2043.45zm1251.5 1447.03c544.14,-1605.51 -1843.16,-2368.44 -2364.84,-840.28 -251.75,737.53 194.05,1410.64 788.33,1605.84 699.34,229.62 1383.76,-196.84 1576.5,-765.56zm385.32 -8364.71c820.79,495.45 747.69,1591.26 356.79,2351.24 -289.1,-395.97 -483.98,-1701.23 -356.79,-2351.24zm253.54 2705.75c316.48,-41.3 312.06,-131.28 508.58,-724.91 239.45,-722.94 260.43,-1220.35 -193.56,-1825.78 -120.96,-161.43 -402.52,-499.56 -573.47,-626.73 -231.09,258.62 -379.43,1416.71 -331.4,1794.48 80.14,627.56 375.81,986.98 589.85,1382.95zm-12757.27 2925.7c590.68,-27.54 1009.27,497.09 1009.93,989.59 0.83,613.96 -467.59,1041.06 -965.83,1055 -1336.24,37.86 -1414.58,-1981 -44.09,-2044.59zm-1271.66 997.78c-54.09,1606.5 2462.04,1726.31 2508.9,50.81 45.56,-1626.99 -2451.87,-1745.32 -2508.9,-50.81zm8632.35 2152.45c323.7,-14.92 553.14,272.55 553.48,542.32 0.49,336.65 -256.17,570.69 -529.22,578.4 -732.28,20.65 -775.39,-1085.81 -24.26,-1120.71zm-8297.68 1016.14c400.07,5.41 1002.71,-73.76 1458.5,-101.95 1534.39,-94.72 3297.24,-7.86 4817.04,214.71 2773.59,406.12 3756.47,884.05 6210.48,1605.02 -158.66,-177.16 -881.27,-674.1 -1162.02,-755.22 -528.73,-152.58 -1051.23,-303.05 -1585.2,-440.39 -436.61,-112.26 -873.07,-217.81 -1310.01,-314.19 284.84,-49.99 536.1,-262.22 547.08,-649.35 24.9,-891.59 -1343.94,-956.49 -1375.08,-27.86 -8.68,257.15 102.92,444.65 265.84,558.55 -1057.78,-212.57 -2119.98,-364.99 -3196.62,-421.37 159.64,-106.36 273.71,-286.82 280.92,-544.78 24.92,-891.59 -1343.94,-956.49 -1375.08,-27.86 -8.53,249.77 96.53,433.83 251.75,548.55 -288.62,-1.15 -578.55,5.25 -869.63,19.66 -1421.47,70.48 -1696.48,172.09 -2957.98,336.48zm4398.46 -344.19c-95.72,-3.6 -191.6,-6.39 -287.64,-8.35 -547.25,-153.9 -519.38,-1067.29 161.93,-1098.92 323.86,-15.08 553.16,272.39 553.48,542.33 0.49,294.19 -195.85,510.2 -427.76,564.94zm9900.73 -3377.7c-78.99,-428.1 -294.52,-1409.34 -474.96,-1715.82 -31.47,204.53 2.13,657.71 6.39,884.54 28.19,1482.1 -146.84,3341.65 -520.2,4769.02 -205.69,786.86 -387.12,1138.42 -537.25,1659.45 247.64,-200.61 782.93,-1150.39 973.05,-1539.47 292.55,-598.55 508.07,-1287.72 602.15,-2004.11 92.1,-701.15 68.01,-1419.51 -49.17,-2053.61zm-12164.95 -8208.2l4673.63 401.22 -2.13 13.11c564.78,61.46 1362.46,148.32 1594.21,175.2l0.17 0c1243.8,126.2 2503.66,444.48 3711.24,576.25 -2723.78,-898.31 -5977.59,-1283.96 -8877.54,-1389.17 -304.52,-11.15 -832.1,-118.66 -1099.58,223.38zm1488.82 -943.21c756.22,-102.93 2342.38,-263.22 3783.52,-49.5 1979.7,293.37 3024.52,429.9 4106.23,1043.04l1789.24 1014.34c-544.61,-627.71 -998.29,-966.16 -1178.41,-1111.54l0 0c-2557.58,-1336.56 -6887.69,-2091.46 -9622.77,-1032.04l-12.96 5.08 -0.66 0.32 0 0c-376.95,148.16 -764.4,276.33 -1197.09,477.26 -160.78,74.58 -320.57,174.22 -455.47,230.61 528.07,-22.79 1755.81,-393.35 2338.78,-508.58 199.63,-36.54 274.37,-94.89 449.57,-68.99zm-3496.21 14481.77l49.16 930.44 -310.42 8.85 -140.13 -910.44 401.39 -28.85zm512.18 -99c-15.25,233.72 25.39,774.08 -32.62,957.98l-274.86 19.66 -49.5 -916.5 356.97 -61.14zm175.36 -16.54c123.25,-18.19 177.18,-56.88 290.75,-22.3l-67.36 934.21 -260.26 21.79 36.87 -933.7zm9775.04 970.91l270.09 118.66 -280.91 1270.68 -260.28 -50.14 271.09 -1339.19zm446.61 119.64l318.78 122.27c-27.54,210.61 -284.2,1110.55 -385.49,1262.97l-265.84 -56.54 332.55 -1328.7zm-9600.97 -1647.3c686.06,-203.72 3562.26,-20.32 4419.27,97.85 2085.4,287.14 2650.35,574.28 4484.5,1036.96l-237.32 1088.43c-2491.54,-428.59 -4286.18,-765.22 -6814.43,-919.94l-2080.99 -64.25 228.97 -1239.05zm4999.46 3283.15c96.53,-45.24 307.14,20.65 439.89,30.98 389.41,29.82 84.57,-236.67 1286.9,-57.37 672.31,100.47 1333.94,216.67 1990.84,249.28 325.66,-23.26 683.6,-7.37 1022.21,-12.79 635.92,-9.83 586.09,48.85 852.26,-269.11 367.45,-438.74 632.14,-1131.69 799.32,-1787.43 -546.76,-143.41 -1145.3,-363.36 -1693.2,-526.27 -3088.6,-919.29 -5761.74,-1506.85 -9027.34,-1331.98 -538.24,28.68 -2841.13,246.34 -3157.61,408.59 7.38,279.11 92.76,722.45 149.64,991.09 70.63,333.19 100.3,677.53 434.48,790.95 679.18,230.43 1451.12,420.55 2162.43,600.67 757.52,191.6 1510.45,365.66 2286.99,511.03 402.86,75.39 807.19,146.69 1215.77,210.78 353.02,55.23 922.89,98.66 1237.41,191.59z"/>
 </g>
</svg>
